G:\RME\Thesis\opencap-processing\Data\6bca726f-ff49-494f-a035-472a00a81e0d\OpenSimData\Dynamics\walking\GRF_resultant_walking_0.mot
version=1
nRows=27
nColumns=19
inDegrees=yes
endheader 
time	ground_force_right_vx	ground_force_right_vy	ground_force_right_vz	ground_force_right_px	ground_force_right_py	ground_force_right_pz	ground_torque_right_x	ground_torque_right_y	ground_torque_right_z	ground_force_left_vx	ground_force_left_vy	ground_force_left_vz	ground_force_left_px	ground_force_left_py	ground_force_left_pz	ground_torque_left_x	ground_torque_left_y	ground_torque_left_z	
          1.72000000	        -29.04409047	        366.30538156	         23.20583839	          1.62563365	          0.00000000	         -0.14474484	          0.00000000	          0.06348515	          0.00000000	        -27.01447438	        420.75024487	        -17.12920849	          1.81023610	          0.00000000	         -0.38082327	          0.00000000	          0.02380446	          0.00000000	
          1.73000000	        -36.27184552	        371.28089983	         24.13534259	          1.62911730	          0.00000000	         -0.14714500	          0.00000000	         -0.10915403	          0.00000000	        -19.82303367	        402.65049153	        -19.62457242	          1.80913959	          0.00000000	         -0.38156482	          0.00000000	          0.02655984	          0.00000000	
          1.74000000	        -43.13148773	        366.07771654	         24.97223735	          1.63273455	          0.00000000	         -0.14943321	          0.00000000	         -0.23598665	          0.00000000	        -14.21660284	        387.12092850	        -21.39638855	          1.80791108	          0.00000000	         -0.38233973	          0.00000000	          0.04181109	          0.00000000	
          1.75000000	        -48.34770038	        353.48764260	         26.22578982	          1.63628191	          0.00000000	         -0.15158258	          0.00000000	         -0.28435099	          0.00000000	        -11.30905012	        375.66657289	        -22.71791578	          1.80656674	          0.00000000	         -0.38307823	          0.00000000	          0.04664655	          0.00000000	
          1.76000000	        -51.78243423	        337.07548997	         28.00808240	          1.63940931	          0.00000000	         -0.15347683	          0.00000000	         -0.26121520	          0.00000000	        -11.25193919	        369.32048060	        -23.19340025	          1.80510582	          0.00000000	         -0.38372214	          0.00000000	          0.01476085	          0.00000000	
          1.77000000	        -53.49697936	        318.95496260	         30.17556346	          1.64197185	          0.00000000	         -0.15511359	          0.00000000	         -0.19662428	          0.00000000	        -13.82256759	        369.04907483	        -23.98086940	          1.80353912	          0.00000000	         -0.38422508	          0.00000000	         -0.02841758	          0.00000000	
          1.78000000	        -54.23219800	        299.59188129	         33.04922982	          1.64417671	          0.00000000	         -0.15661160	          0.00000000	         -0.12628660	          0.00000000	        -18.73827588	        375.45375406	        -26.18228182	          1.80185557	          0.00000000	         -0.38457259	          0.00000000	         -0.06354900	          0.00000000	
          1.79000000	        -54.62695544	        280.20018473	         36.38579687	          1.64607342	          0.00000000	         -0.15803595	          0.00000000	         -0.06451515	          0.00000000	        -23.22423585	        389.53649231	        -27.44162483	          1.80011271	          0.00000000	         -0.38470294	          0.00000000	         -0.04757283	          0.00000000	
          1.80000000	        -57.09337255	        262.60096781	         39.47099550	          1.64754605	          0.00000000	         -0.15933429	          0.00000000	         -0.01964830	          0.00000000	        -27.26177301	        411.33359388	        -29.56404130	          1.79832092	          0.00000000	         -0.38462450	          0.00000000	         -0.01309869	          0.00000000	
          1.81000000	        -58.78734046	        246.34940813	         42.82448608	          1.64873210	          0.00000000	         -0.16041426	          0.00000000	          0.00753533	          0.00000000	        -28.44821553	        441.03099596	        -31.77083324	          1.79653574	          0.00000000	         -0.38435902	          0.00000000	          0.12092514	          0.00000000	
          1.82000000	        -63.68580743	        232.32078166	         45.73510759	          1.64958557	          0.00000000	         -0.16125171	          0.00000000	          0.02281338	          0.00000000	        -28.98893897	        477.60318030	        -34.70713475	          1.79477974	          0.00000000	         -0.38399968	          0.00000000	          0.43759955	          0.00000000	
          1.83000000	        -66.23384966	        218.69078755	         49.06522156	          1.65041407	          0.00000000	         -0.16192056	          0.00000000	          0.03202446	          0.00000000	        -26.48668857	        517.93073516	        -34.85995366	          1.79310851	          0.00000000	         -0.38356927	          0.00000000	          0.90359601	          0.00000000	
          1.84000000	        -71.73389190	        206.54857563	         52.34246205	          1.65106963	          0.00000000	         -0.16256720	          0.00000000	          0.03812499	          0.00000000	        -23.87647946	        558.49674142	        -41.11151285	          1.79148441	          0.00000000	         -0.38324808	          0.00000000	          1.54164476	          0.00000000	
          1.85000000	        -75.65601054	        194.96339745	         54.76839347	          1.65176383	          0.00000000	         -0.16326545	          0.00000000	          0.04282918	          0.00000000	        -20.36844403	        595.60985061	        -33.24544139	          1.78995974	          0.00000000	         -0.38292516	          0.00000000	          2.38349159	          0.00000000	
          1.86000000	        -79.89304118	        183.02231743	         55.96443071	          1.65240231	          0.00000000	         -0.16401980	          0.00000000	          0.04403425	          0.00000000	        -14.58544227	        625.56831699	        -37.49189450	          1.78843179	          0.00000000	         -0.38282973	          0.00000000	          3.41658756	          0.00000000	
          1.87000000	        -84.73274329	        171.29991116	         60.27624393	          1.65299494	          0.00000000	         -0.16464037	          0.00000000	          0.04373104	          0.00000000	        -10.76474339	        645.46480295	        -37.56633285	          1.78689897	          0.00000000	         -0.38280978	          0.00000000	          4.34970720	          0.00000000	
          1.88000000	        -82.07165022	        157.93833524	         65.79130262	          1.65387852	          0.00000000	         -0.16522278	          0.00000000	          0.04301503	          0.00000000	         -2.93718129	        657.69176461	        -41.00668080	          1.78548625	          0.00000000	         -0.38300719	          0.00000000	          4.80426283	          0.00000000	
          1.89000000	        -91.10431536	        147.72972675	         70.80463318	          1.65424289	          0.00000000	         -0.16593354	          0.00000000	          0.03536252	          0.00000000	          1.76571472	        661.54488323	        -41.62736599	          1.78402810	          0.00000000	         -0.38325635	          0.00000000	          5.42864516	          0.00000000	
          1.90000000	        -82.49322974	        133.33864053	         76.48603850	          1.65539919	          0.00000000	         -0.16658969	          0.00000000	          0.02541852	          0.00000000	          9.85929139	        659.80839367	        -45.15717228	          1.78257158	          0.00000000	         -0.38356056	          0.00000000	          5.76905793	          0.00000000	
          1.91000000	        -81.65494227	        124.79225245	         82.47099205	          1.65645260	          0.00000000	         -0.16765559	          0.00000000	          0.00997523	          0.00000000	         20.20302513	        652.47425667	        -53.60123546	          1.78113295	          0.00000000	         -0.38386293	          0.00000000	          5.60387736	          0.00000000	
          1.92000000	        -85.27749262	        120.39869281	         82.09873600	          1.65788119	          0.00000000	         -0.16966629	          0.00000000	          0.00490720	          0.00000000	         47.62303060	        642.83058263	        -68.41116813	          1.77992224	          0.00000000	         -0.38419960	          0.00000000	          5.45842848	          0.00000000	
          1.93000000	        -85.55334740	        115.41567763	         86.05160782	          1.66010332	          0.00000000	         -0.17202701	          0.00000000	          0.00402023	          0.00000000	         48.76969463	        635.53413286	        -68.72816431	          1.77857515	          0.00000000	         -0.38432549	          0.00000000	          5.42607864	          0.00000000	
          1.94000000	        -87.62835837	        112.48171041	         87.17335477	          1.66289793	          0.00000000	         -0.17508944	          0.00000000	          0.00274524	          0.00000000	         41.59551546	        633.43198274	        -56.89575845	          1.77730826	          0.00000000	         -0.38431513	          0.00000000	          5.85813244	          0.00000000	
          1.95000000	        -86.43349894	        110.59298647	         88.24464488	          1.66611369	          0.00000000	         -0.17819743	          0.00000000	         -0.00016549	          0.00000000	         23.00023084	        636.95548041	        -35.37415399	          1.77610417	          0.00000000	         -0.38421159	          0.00000000	          6.42190526	          0.00000000	
          1.96000000	        -83.47393212	        110.63721156	         87.78403296	          1.66915707	          0.00000000	         -0.18107488	          0.00000000	         -0.00712524	          0.00000000	          5.64085577	        645.45057647	        -15.20038414	          1.77507507	          0.00000000	         -0.38415217	          0.00000000	          6.94205382	          0.00000000	
          1.97000000	        -79.39648929	        114.76910710	         89.11929490	          1.67143419	          0.00000000	         -0.18311727	          0.00000000	         -0.02792408	          0.00000000	         -0.67960059	        656.68648218	         -9.89552362	          1.77434221	          0.00000000	         -0.38427211	          0.00000000	          7.21523633	          0.00000000	
          1.98000000	        -78.65949120	        124.14683239	         89.99053778	          1.67216536	          0.00000000	         -0.18359818	          0.00000000	         -0.06936505	          0.00000000	          7.87604207	        667.48819977	        -18.36306037	          1.77392355	          0.00000000	         -0.38452032	          0.00000000	          6.92954886	          0.00000000	
